HIERARCHY
ROOT simHips
{
  OFFSET -152.561 99.9187 59.0565
  CHANNELS 6 Xposition Yposition Zposition Zrotation Xrotation Yrotation
  JOINT simSpine
  {
    OFFSET -0.000355721 21.3001 -0.016921
    CHANNELS 3 Zrotation Xrotation Yrotation
    JOINT simLeftArm
    {
      OFFSET 13.5181 21.3012 0
      CHANNELS 3 Zrotation Xrotation Yrotation
      JOINT simLeftForeArm
      {
        OFFSET 24.5783 0 0
        CHANNELS 3 Zrotation Xrotation Yrotation
        JOINT simLeftHand
        {
          OFFSET 24.5783 0 0
          CHANNELS 3 Zrotation Xrotation Yrotation
          End Site
          {
            OFFSET 7.32568 1.52588e-05 0.0169305
          }
        }
      }
    }
    JOINT simHead
    {
      OFFSET 0 27.4458 -0.00489235
      CHANNELS 3 Zrotation Xrotation Yrotation
      End Site
      {
        OFFSET 0 0 0
      }
    }
    JOINT simRightArm
    {
      OFFSET -13.5174 21.3012 0
      CHANNELS 3 Zrotation Xrotation Yrotation
      JOINT simRightForeArm
      {
        OFFSET -24.5783 0 0
        CHANNELS 3 Zrotation Xrotation Yrotation
        JOINT simRightHand
        {
          OFFSET -24.5783 0 0
          CHANNELS 3 Zrotation Xrotation Yrotation
          End Site
          {
            OFFSET -7.32568 1.52588e-05 0.0169305
          }
        }
      }
    }
  }
  JOINT simRightUpLeg
  {
    OFFSET -8.44614 -9.41038 0.835684
    CHANNELS 3 Zrotation Xrotation Yrotation
    JOINT simRightLeg
    {
      OFFSET 0 -40.9639 0
      CHANNELS 3 Zrotation Xrotation Yrotation
      JOINT simRightFoot
      {
        OFFSET 0 -40.9639 0
        CHANNELS 3 Zrotation Xrotation Yrotation
        End Site
        {
          OFFSET 0.50614 -9.67405 14.6709
        }
      }
    }
  }
  JOINT simLeftUpLeg
  {
    OFFSET 8.44614 -9.41038 0.835684
    CHANNELS 3 Zrotation Xrotation Yrotation
    JOINT simLeftLeg
    {
      OFFSET 0 -40.9639 0
      CHANNELS 3 Zrotation Xrotation Yrotation
      JOINT simLeftFoot
      {
        OFFSET 0 -40.9639 0
        CHANNELS 3 Zrotation Xrotation Yrotation
        End Site
        {
          OFFSET -0.50614 -9.67405 14.6709
        }
      }
    }
  }
}
MOTION
Frames:	11
Frame Time:	0.0333333
-151.894 99.856 60.6371 -0.0791719 0.078171 -2.26198 -2.20224 -2.32926 0.313242 21.2537 -7.30757 -0.870777 -3.16975 0.0848229 -0.0102269 -1.349 3.24106 0.5323 -1.71517 -3.20322 -17.42 -12.8842 -4.91085 1.09769 1.94855 0.43422 -0.000115874 1.91112 0.0440879 -0.00331685 1.7631 -0.83616 2.48545 0.147504 0.393039 -0.00209552 -1.75399 0.237506 -0.145384 -0.0908801 -0.417708 1.67589 -0.00242671 0.775887 -0.0385345 0.757129 -0.342719 0.759141 
-151.893 99.856 60.621 -0.0797471 0.0623203 -2.30874 -2.1994 -2.31488 0.338755 21.2566 -7.28602 -0.853431 -3.12184 0.0848229 -0.000764013 -1.31299 3.23681 0.59471 -1.71737 -3.18917 -17.4393 -12.8895 -4.82564 1.0394 1.94855 0.43422 -0.000115874 1.92058 -0.0268383 -0.0384785 1.76522 -0.84751 2.59565 0.167981 0.416567 -0.00209552 -1.75565 0.237505 -0.214216 -0.10252 -0.330315 1.69144 0.00945356 0.642692 -0.0385334 0.267084 -0.696016 0.944631 
-151.893 99.8556 60.6178 -0.0824783 -0.0052883 -2.36736 -2.18202 -2.24039 0.370141 21.2472 -7.23585 -0.836077 -3.08095 0.0848229 0.00322345 -1.27121 3.1725 0.646041 -1.72015 -3.24478 -17.4482 -12.9218 -4.79917 0.999636 1.94855 0.43422 -0.000115874 1.87962 0.00369102 -0.108117 1.76219 -0.770502 2.56243 0.159197 0.402877 -0.00209552 -1.7427 0.237506 -0.114592 -0.0963059 -0.299107 1.65247 -0.00707366 0.727789 -0.0385341 0.360767 -0.752632 0.97026 
-151.893 99.8557 60.6035 -0.0823544 -0.00229271 -2.36716 -2.18925 -2.20261 0.335465 21.2874 -7.22037 -0.777394 -3.06602 0.0848229 0.000567432 -1.26621 3.21941 0.532828 -1.67116 -3.28923 -17.4303 -12.8987 -4.8521 0.944062 1.93615 0.43422 -0.000115874 1.8963 0.0936603 -0.094118 1.75339 -0.812595 2.60406 0.180713 0.457702 -0.00209553 -1.74433 0.226472 -0.16121 -0.117724 -0.26191 1.64362 0.0408526 0.62378 -0.0385332 0.384989 -0.597805 0.978713 
-151.895 99.8555 60.5937 -0.0832773 -0.0247364 -2.35577 -2.16997 -2.18358 0.309145 21.24 -7.2412 -0.809334 -3.04423 0.0848229 -0.00429007 -1.19034 3.20202 0.53152 -1.7377 -3.21017 -17.4448 -12.9218 -4.85907 0.941607 1.96776 0.43422 -0.000115874 1.93906 0.0688414 -0.00606076 1.75052 -0.805127 2.60001 0.178711 0.473146 -0.0057183 -1.74135 0.230654 -0.157652 -0.114861 -0.280069 1.71941 0.0216221 0.673371 -0.0385336 0.288552 -0.717774 0.926428 
-151.908 99.8555 60.5742 -0.0789677 -0.0474548 -2.32061 -2.16432 -2.11727 0.260445 21.2123 -7.28129 -0.821326 -3.05272 0.0848229 -0.00462761 -1.226 3.07667 0.534117 -1.79303 -3.25975 -17.4542 -12.9429 -4.84985 0.934134 1.98208 0.43422 -0.000115874 1.89402 0.0682797 -0.0198056 1.76088 -0.777465 2.61172 0.176081 0.439559 -0.0075683 -1.75166 0.266758 -0.212512 -0.119034 -0.232167 1.71131 0.0310129 0.596648 -0.0385331 0.310248 -0.666795 0.846734 
-151.926 99.8552 60.5519 -0.0627404 -0.0876879 -2.28006 -2.16636 -2.03746 0.224415 21.1839 -7.25242 -0.888248 -3.06902 0.0848229 0.00631528 -1.29093 3.17663 0.499304 -1.83731 -3.31517 -17.4491 -12.9729 -4.84651 0.894985 1.97466 0.43422 -0.000115874 1.86959 0.0904916 0.00867805 1.76304 -0.724036 2.56201 0.157098 0.40615 -0.00917942 -1.73816 0.275447 -0.211681 -0.119103 -0.219045 1.54161 0.0330978 0.643183 -0.0385334 0.371029 -0.552612 0.961794 
-151.935 99.8551 60.5453 -0.0688853 -0.0984142 -2.27405 -2.1293 -2.01964 0.231567 21.1991 -7.21627 -0.89214 -3.09866 0.0848229 -0.0137462 -1.43948 3.32839 0.548329 -1.84514 -3.35053 -17.3992 -13.0053 -4.8792 0.869657 1.96687 0.43422 -0.000115874 1.82385 0.108109 -0.0119951 1.77294 -0.687643 2.59555 0.14047 0.362743 -0.0103631 -1.79299 0.338124 -0.182109 -0.102408 -0.22186 1.52899 0.0319154 0.645268 -0.0385334 0.319212 -0.685669 0.971107 
-151.959 99.8554 60.5458 -0.0462663 -0.0601424 -2.26421 -2.14713 -2.06625 0.226335 21.1403 -7.21739 -0.946132 -3.05458 0.0848229 0.0028833 -1.35529 3.16336 0.52979 -1.80109 -3.25655 -17.423 -12.9808 -4.82998 0.877923 1.95807 0.43422 -0.000115874 1.80277 0.0779591 -0.0191694 1.75748 -0.781111 2.57739 0.170533 0.455052 -0.0109308 -1.75242 0.245773 -0.253183 -0.114512 -0.285396 1.72205 0.0302513 0.666271 -0.0385336 0.319197 -0.645851 0.79049 
-151.994 99.8554 60.5458 -0.0381496 -0.0281146 -2.23764 -2.16636 -2.09267 0.208512 21.1486 -7.23347 -0.926307 -3.04052 0.0848229 -0.00548379 -1.35667 3.19661 0.490684 -1.73913 -3.21225 -17.4261 -12.9436 -4.73806 0.882 1.94702 0.43422 -0.000115874 1.8911 0.0274939 -0.0264064 1.7834 -0.783617 2.58693 0.142871 0.390208 -0.0106937 -1.77634 0.281476 -0.257424 -0.0957746 -0.301961 1.61015 0.028488 0.650423 -0.0385334 0.28866 -0.648927 0.869736 
-152.021 99.8539 60.5525 -0.0268905 0.00358497 -2.23467 -2.1818 -2.128 0.221679 21.1729 -7.20867 -0.95119 -3.06313 0.0848229 -0.00686431 -1.3881 3.15757 0.460467 -1.68476 -3.20309 -17.4455 -12.9422 -4.70419 0.894964 1.9796 0.43422 -0.000115874 1.92848 0.0158917 -0.0234529 1.78405 -0.814337 2.58221 0.158347 0.401847 -0.00946351 -1.80649 0.25836 -0.259157 -0.0800038 -0.365579 1.62174 -0.00431145 0.724582 -0.038534 0.250162 -0.65151 0.904614 
